<?xml version="1.0" encoding="UTF-8"?>
<svg width="20px" height="20px" viewBox="0 0 24 24" stroke-width="1.5" fill="none" xmlns="http://www.w3.org/2000/svg" color="#ffffff">
  <path d="M10.5 4.5v4.667a.6.6 0 01-.282.51l-7.436 4.647a.6.6 0 00-.282.508v.9a.6.6 0 00.746.582l6.508-1.628a.6.6 0 01.746.582v2.96a.6.6 0 01-.205.451l-2.16 1.89a.6.6 0 00-.205.451v.516a.6.6 0 00.502.594l2.19.366a.6.6 0 00.497-.117l3.1-2.324a.6.6 0 01.654-.043l3.894 2.275a.6.6 0 00.671-.054l.61-.61a.6.6 0 00.106-.777l-3.664-5.423a.6.6 0 01-.106-.337V9.561a.6.6 0 01.309-.525l5.334-2.907a.6.6 0 00.309-.525v-.511a.6.6 0 00-.765-.575l-10.555 3.34a.6.6 0 01-.765-.576V4.5a.6.6 0 00-.6-.6h-.6a.6.6 0 00-.6.6z" stroke="#ffffff" stroke-width="1.5" stroke-linecap="round" stroke-linejoin="round"></path>
</svg>
